#!OML:ASF F:\VICON\USERDATA\INSTALL\rory3\rory3.ASF
:FULLY-SPECIFIED
:DEGREES
240
root -0.742311 15.863 -1.82696 -0.724056 -1.3187 3.8664
lowerback 20.176 0.560777 -1.66485
upperback 5.3343 0.350133 -0.640091
thorax -5.50551 0.182295 0.177438
lowerneck -11.1723 -1.01547 -6.49282
upperneck -2.856 -0.623023 5.80942
head 1.08391 -0.146944 3.00977
rclavicle -6.95746e-016 4.77083e-015
rhumerus -28.3743 -12.4768 -71.0859
rradius 23.2534
rwrist 17.0865
rhand -27.9788 1.75972
rfingers 7.12502
rthumb -1.36541 -28.2157
lclavicle -6.95746e-016 4.77083e-015
lhumerus -28.8848 11.4401 78.1645
lradius 35.228
lwrist 8.35968
lhand -24.9114 25.3225
lfingers 7.12502
lthumb 1.59712 55.2962
rfemur -28.1485 9.77984 15.0097
rtibia 75.283
rfoot -41.0516 -13.6393
rtoes -18.0464
lfemur -31.5473 4.70072 -20.3254
ltibia 76.8871
lfoot -30.7259 -1.85779
ltoes -9.74767
241
root -0.744992 15.802 -1.85093 -1.13949 -1.56649 4.10118
lowerback 20.7203 0.632006 -1.81903
upperback 5.50475 0.39635 -0.689456
thorax -5.6066 0.205326 0.197898
lowerneck -11.0879 -0.88364 -6.3107
upperneck -2.88927 -0.472296 5.75289
head 1.04577 -0.075005 2.96136
rclavicle -1.92821e-014 -1.66979e-014
rhumerus -27.7237 -12.3003 -71.7591
rradius 22.6555
rwrist 18.9976
rhand -24.7826 1.26015
rfingers 7.12502
rthumb 1.72152 -28.7127
lclavicle -1.92821e-014 -1.66979e-014
lhumerus -27.9864 12.5225 78.2423
lradius 33.0054
lwrist 8.03673
lhand -24.451 24.5392
lfingers 7.12502
lthumb 2.04175 54.5092
rfemur -28.5462 9.90567 14.818
rtibia 76.5359
rfoot -40.9176 -13.3963
rtoes -18.1275
lfemur -32.0796 4.7768 -20.4545
ltibia 78.4734
lfoot -29.8972 -1.91967
ltoes -11.258
242
root -0.751551 15.7612 -1.87795 -1.4684 -1.72295 4.39517
lowerback 21.305 0.657466 -2.03621
upperback 5.59118 0.363598 -0.765114
thorax -5.8167 0.191678 0.244724
lowerneck -10.8595 -0.705356 -6.19428
upperneck -3.04529 -0.256044 5.75864
head 0.939719 0.0297946 2.94729
rclavicle 6.4605e-015 -5.96354e-015
rhumerus -27.1121 -12.0486 -72.4962
rradius 22.1377
rwrist 20.4873
rhand -22.2407 1.35807
rfingers 7.12502
rthumb 4.1763 -28.5807
lclavicle 6.4605e-015 -5.96354e-015
lhumerus -27.3457 13.631 78.1928
lradius 31.235
lwrist 7.50466
lhand -23.3458 24.3264
lfingers 7.12502
lthumb 3.10918 54.2835
rfemur -29.2129 9.87875 14.5037
rtibia 77.7207
rfoot -40.8084 -12.7287
rtoes -16.6384
lfemur -32.6229 4.85783 -20.5854
ltibia 79.6834
lfoot -28.9902 -2.14396
ltoes -14.7936
243
root -0.75965 15.7274 -1.89857 -1.86191 -1.82737 4.86795
lowerback 21.8676 0.702027 -2.49206
upperback 5.71599 0.301692 -0.847871
thorax -5.97187 0.165586 0.428262
lowerneck -10.733 -0.565292 -6.3681
upperneck -3.10734 -0.0556555 5.99322
head 0.887541 0.134179 3.06795
rclavicle 1.44119e-014 2.38542e-015
rhumerus -26.5638 -11.6393 -73.2715
rradius 21.7361
rwrist 21.4524
rhand -21.0161 1.84187
rfingers 7.12502
rthumb 5.35885 -28.0704
lclavicle 1.44119e-014 2.38542e-015
lhumerus -26.8197 14.5777 78.2064
lradius 29.7498
lwrist 6.90626
lhand -22.341 24.2833
lfingers 7.12502
lthumb 4.07952 54.224
rfemur -29.5663 9.44804 14.1331
rtibia 78.4265
rfoot -39.7256 -14.5982
rtoes -20.1605
lfemur -32.9052 4.85923 -20.8748
ltibia 80.6113
lfoot -28.172 -2.52864
ltoes -16.9305
244
root -0.766651 15.6977 -1.91034 -2.27577 -2.00801 5.35706
lowerback 22.3125 0.778386 -2.99589
upperback 5.89042 0.269114 -0.947471
thorax -6.01053 0.152571 0.614711
lowerneck -10.7519 -0.472923 -6.42013
upperneck -3.09951 0.0729066 6.20027
head 0.886791 0.202838 3.15508
rclavicle -8.74653e-015 -1.59028e-015
rhumerus -26.1125 -11.2371 -74.0592
rradius 21.657
rwrist 22.5675
rhand -20.1662 3.02794
rfingers 7.12502
rthumb 6.17936 -26.8619
lclavicle -8.74653e-015 -1.59028e-015
lhumerus -26.3671 15.3698 78.23
lradius 28.605
lwrist 6.40968
lhand -21.8521 24.2519
lfingers 7.12502
lthumb 4.55159 54.183
rfemur -29.3878 9.16289 13.6303
rtibia 79.0298
rfoot -40.0437 -13.807
rtoes -19.0108
lfemur -32.9905 4.88899 -21.1531
ltibia 81.313
lfoot -27.4348 -2.99093
ltoes -17.7122
245
root -0.770738 15.6907 -1.90854 -2.54995 -2.23554 5.87696
lowerback 22.429 0.84948 -3.50642
upperback 6.07038 0.236624 -1.08242
thorax -5.87254 0.136776 0.768821
lowerneck -10.6494 -0.391359 -6.31703
upperneck -3.34813 0.172383 6.27618
head 0.780928 0.251887 3.16225
rclavicle 7.25564e-015 2.34566e-014
rhumerus -25.6242 -10.5215 -74.9525
rradius 21.7583
rwrist 22.9564
rhand -19.3679 4.23875
rfingers 7.12502
rthumb 6.95 -25.6272
lclavicle 7.25564e-015 2.34566e-014
lhumerus -25.9625 16.0251 78.2618
lradius 27.7623
lwrist 6.24389
lhand -21.6684 24.1643
lfingers 7.12502
lthumb 4.72896 54.0915
rfemur -29.3301 8.8877 13.0801
rtibia 79.3824
rfoot -40.1884 -13.2832
rtoes -18.1256
lfemur -33.0138 5.02263 -21.4837
ltibia 81.7528
lfoot -26.7569 -3.60014
ltoes -18.0932
246
root -0.774468 15.6913 -1.90606 -2.65665 -2.47181 6.1575
lowerback 22.3625 0.84418 -3.73539
upperback 6.20142 0.177542 -1.18614
thorax -5.69264 0.105253 0.804072
lowerneck -10.6027 -0.386314 -6.30843
upperneck -3.55448 0.181915 6.4651
head 0.706203 0.258957 3.22421
rclavicle 1.44119e-014 6.75868e-015
rhumerus -25.1738 -9.13004 -76.031
rradius 22.1579
rwrist 22.2602
rhand -18.8493 4.65491
rfingers 7.12502
rthumb 7.45066 -25.1939
lclavicle 1.44119e-014 6.75868e-015
lhumerus -25.668 16.4587 78.2834
lradius 27.1482
lwrist 6.06394
lhand -21.7287 23.9163
lfingers 7.12502
lthumb 4.6707 53.8448
rfemur -29.4523 8.59129 12.8022
rtibia 79.6264
rfoot -40.1179 -13.1265
rtoes -17.6228
lfemur -33.1596 5.31601 -21.5411
ltibia 82.075
lfoot -26.1386 -4.35947
ltoes -18.7981
247
root -0.780157 15.6968 -1.90533 -2.6436 -2.71328 6.11591
lowerback 22.2908 0.788194 -3.65683
upperback 6.21966 0.123596 -1.20888
thorax -5.63412 0.0771834 0.749654
lowerneck -10.4646 -0.374322 -6.19403
upperneck -3.65137 0.18086 6.46845
head 0.65021 0.254933 3.20112
rclavicle 1.09332e-015 3.57812e-015
rhumerus -24.9737 -7.39128 -77.1244
rradius 22.8124
rwrist 21.0444
rhand -18.8973 4.79564
rfingers 7.12502
rthumb 7.40428 -25.0548
lclavicle 1.09332e-015 3.57812e-015
lhumerus -25.7383 16.6884 78.2759
lradius 26.979
lwrist 5.79123
lhand -22.2742 23.7816
lfingers 7.12502
lthumb 4.14402 53.7211
rfemur -29.5894 8.32681 12.8925
rtibia 79.7145
rfoot -39.992 -12.9636
rtoes -17.2045
lfemur -33.3867 5.67782 -21.2318
ltibia 82.2743
lfoot -25.5925 -5.1245
ltoes -19.5766
248
root -0.784843 15.7079 -1.89962 -2.63144 -2.93902 6.12902
lowerback 22.2311 0.748598 -3.66533
upperback 6.19266 0.0709072 -1.217
thorax -5.63095 0.0514262 0.759904
lowerneck -10.2685 -0.340131 -6.06796
upperneck -3.64088 0.201782 6.37686
head 0.616945 0.259423 3.14415
rclavicle -7.95139e-016 -1.35174e-014
rhumerus -24.8633 -6.15881 -77.9924
rradius 23.4637
rwrist 20.276
rhand -18.9541 4.49594
rfingers 7.12502
rthumb 7.34943 -25.3564
lclavicle -7.95139e-016 -1.35174e-014
lhumerus -26.0193 16.9105 78.2949
lradius 27.0987
lwrist 5.63687
lhand -22.9426 23.8988
lfingers 7.12502
lthumb 3.49856 53.8499
rfemur -29.6707 8.0459 12.8971
rtibia 79.7055
rfoot -39.8792 -12.7658
rtoes -17.0334
lfemur -33.4952 6.06099 -21.0077
ltibia 82.3294
lfoot -24.8525 -5.87305
ltoes -18.7811
249
root -0.787031 15.7248 -1.88611 -2.67169 -3.24421 6.19767
lowerback 22.0988 0.769858 -3.70899
upperback 6.21587 0.0932268 -1.2406
thorax -5.53856 0.0603531 0.75415
lowerneck -10.3111 -0.348195 -6.03378
upperneck -3.37996 0.17937 6.38197
head 0.710613 0.248343 3.14104
rclavicle -1.17283e-014 -5.96354e-015
rhumerus -24.788 -5.51876 -78.6365
rradius 24.1545
rwrist 19.8135
rhand -19.4375 4.01992
rfingers 7.12502
rthumb 6.88287 -25.8482
lclavicle -1.17283e-014 -5.96354e-015
lhumerus -26.1176 17.0225 78.3697
lradius 27.2007
lwrist 5.54145
lhand -23.1931 24.2293
lfingers 7.12502
lthumb 3.25659 54.1841
rfemur -29.6708 7.83236 12.8185
rtibia 79.6296
rfoot -39.7796 -12.4562
rtoes -16.7569
lfemur -33.3784 6.63617 -20.8908
ltibia 82.2596
lfoot -24.0179 -6.30409
ltoes -17.6907
250
root -0.787225 15.7521 -1.86864 -2.81987 -3.59519 6.27363
lowerback 22.0261 0.806065 -3.69182
upperback 6.24426 0.144395 -1.27536
thorax -5.4724 0.0833508 0.694034
lowerneck -10.2068 -0.387326 -6.11047
upperneck -3.19812 0.12283 6.43212
head 0.756153 0.219721 3.17148
rclavicle 2.08724e-015 1.07344e-014
rhumerus -24.9042 -4.8534 -79.2067
rradius 25.0266
rwrist 19.0895
rhand -20.3364 3.59472
rfingers 7.12502
rthumb 6.01504 -26.2999
lclavicle 2.08724e-015 1.07344e-014
lhumerus -26.1914 16.9663 78.4548
lradius 27.3211
lwrist 5.50766
lhand -23.1812 24.9227
lfingers 7.12502
lthumb 3.26816 54.8774
rfemur -29.4746 7.76535 12.7503
rtibia 79.4578
rfoot -39.6039 -12.345
rtoes -16.953
lfemur -32.9881 7.26903 -20.8235
ltibia 82.0615
lfoot -23.5993 -6.67986
ltoes -17.3974
